<svg width="22" height="28" viewBox="0 0 22 28" fill="none" xmlns="http://www.w3.org/2000/svg">
<path d="M10 13.75V1.25C10 0.895833 10.1198 0.598958 10.3594 0.359375C10.599 0.119792 10.8958 0 11.25 0C11.6042 0 11.901 0.119792 12.1406 0.359375C12.3802 0.598958 12.5 0.895833 12.5 1.25V13.75H10V13.75M5 13.75V2.5C5 2.14583 5.11979 1.84896 5.35938 1.60938C5.59896 1.36979 5.89583 1.25 6.25 1.25C6.60417 1.25 6.90104 1.36979 7.14062 1.60938C7.38021 1.84896 7.5 2.14583 7.5 2.5V13.75H5V13.75M10.625 27.5C7.66667 27.5 5.15625 26.4688 3.09375 24.4062C1.03125 22.3438 0 19.8333 0 16.875V5C0 4.64583 0.119792 4.34896 0.359375 4.10938C0.598958 3.86979 0.895833 3.75 1.25 3.75C1.60417 3.75 1.90104 3.86979 2.14062 4.10938C2.38021 4.34896 2.5 4.64583 2.5 5V16.875C2.5 19.1458 3.28646 21.0677 4.85938 22.6406C6.43229 24.2135 8.35417 25 10.625 25C12.8958 25 14.8177 24.2135 16.3906 22.6406C17.9635 21.0677 18.75 19.1458 18.75 16.875V12.5V12.5C18.3958 12.5 18.099 12.6198 17.8594 12.8594C17.6198 13.099 17.5 13.3958 17.5 13.75V18.75H13.75C13.0625 18.75 12.474 18.9948 11.9844 19.4844C11.4948 19.974 11.25 20.5625 11.25 21.25V22.5H8.75V21.25C8.75 19.875 9.23958 18.6979 10.2188 17.7188C11.1979 16.7396 12.375 16.25 13.75 16.25H15V12.6875V12.6875V3.75C15 3.39583 15.1198 3.09896 15.3594 2.85938C15.599 2.61979 15.8958 2.5 16.25 2.5C16.6042 2.5 16.901 2.61979 17.1406 2.85938C17.3802 3.09896 17.5 3.39583 17.5 3.75V10.2188C17.7083 10.1562 17.9115 10.1042 18.1094 10.0625C18.3073 10.0208 18.5208 10 18.75 10H21.25V16.875C21.25 19.8333 20.2188 22.3438 18.1562 24.4062C16.0938 26.4688 13.5833 27.5 10.625 27.5V27.5M11.875 17.5V17.5V17.5V17.5V17.5V17.5V17.5V17.5V17.5V17.5V17.5V17.5V17.5V17.5V17.5V17.5V17.5" fill="#4D4732"/>
</svg>
