<svg width="21" height="20" viewBox="0 0 21 20" fill="none" xmlns="http://www.w3.org/2000/svg">
<path d="M2 16.8333L1.15 16.4833C0.633333 16.2667 0.2875 15.8917 0.1125 15.3583C-0.0625 14.825 -0.0333333 14.3 0.2 13.7833L2 9.88333V16.8333V16.8333M6 19.0333C5.45 19.0333 4.97917 18.8375 4.5875 18.4458C4.19583 18.0542 4 17.5833 4 17.0333V11.0333L6.65 18.3833C6.7 18.5 6.75 18.6125 6.8 18.7208C6.85 18.8292 6.91667 18.9333 7 19.0333H6V19.0333M11.15 18.9333C10.6167 19.1333 10.1 19.1083 9.6 18.8583C9.1 18.6083 8.75 18.2167 8.55 17.6833L4.1 5.48333C3.9 4.95 3.91667 4.42917 4.15 3.92083C4.38333 3.4125 4.76667 3.06667 5.3 2.88333L12.85 0.133333C13.3833 -0.0666667 13.9 -0.0416667 14.4 0.208333C14.9 0.458333 15.25 0.85 15.45 1.38333L19.9 13.5833C20.1 14.1167 20.0833 14.6375 19.85 15.1458C19.6167 15.6542 19.2333 16 18.7 16.1833L11.15 18.9333V18.9333M9 7.03333C9.28333 7.03333 9.52083 6.9375 9.7125 6.74583C9.90417 6.55417 10 6.31667 10 6.03333C10 5.75 9.90417 5.5125 9.7125 5.32083C9.52083 5.12917 9.28333 5.03333 9 5.03333C8.71667 5.03333 8.47917 5.12917 8.2875 5.32083C8.09583 5.5125 8 5.75 8 6.03333C8 6.31667 8.09583 6.55417 8.2875 6.74583C8.47917 6.9375 8.71667 7.03333 9 7.03333V7.03333" fill="#705D00"/>
</svg>
