<svg width="27" height="24" viewBox="0 0 27 24" fill="none" xmlns="http://www.w3.org/2000/svg">
<path d="M4 24V21.3333H22.6667V24H4ZM4 19.3333L2.3 8.63333C2.25556 8.63333 2.20556 8.63889 2.15 8.65C2.09444 8.66111 2.04444 8.66667 2 8.66667C1.44444 8.66667 0.972222 8.47222 0.583333 8.08333C0.194444 7.69444 0 7.22222 0 6.66667C0 6.11111 0.194444 5.63889 0.583333 5.25C0.972222 4.86111 1.44444 4.66667 2 4.66667C2.55556 4.66667 3.02778 4.86111 3.41667 5.25C3.80556 5.63889 4 6.11111 4 6.66667C4 6.82222 3.98333 6.96667 3.95 7.1C3.91667 7.23333 3.87778 7.35556 3.83333 7.46667L8 9.33333L12.1667 3.63333C11.9222 3.45556 11.7222 3.22222 11.5667 2.93333C11.4111 2.64444 11.3333 2.33333 11.3333 2C11.3333 1.44444 11.5278 0.972222 11.9167 0.583333C12.3056 0.194444 12.7778 0 13.3333 0C13.8889 0 14.3611 0.194444 14.75 0.583333C15.1389 0.972222 15.3333 1.44444 15.3333 2C15.3333 2.33333 15.2556 2.64444 15.1 2.93333C14.9444 3.22222 14.7444 3.45556 14.5 3.63333L18.6667 9.33333L22.8333 7.46667C22.7889 7.35556 22.75 7.23333 22.7167 7.1C22.6833 6.96667 22.6667 6.82222 22.6667 6.66667C22.6667 6.11111 22.8611 5.63889 23.25 5.25C23.6389 4.86111 24.1111 4.66667 24.6667 4.66667C25.2222 4.66667 25.6944 4.86111 26.0833 5.25C26.4722 5.63889 26.6667 6.11111 26.6667 6.66667C26.6667 7.22222 26.4722 7.69444 26.0833 8.08333C25.6944 8.47222 25.2222 8.66667 24.6667 8.66667C24.6222 8.66667 24.5722 8.66111 24.5167 8.65C24.4611 8.63889 24.4111 8.63333 24.3667 8.63333L22.6667 19.3333H4Z" fill="#705E00"/>
</svg>
