<svg width="18" height="18" viewBox="0 0 18 18" fill="none" xmlns="http://www.w3.org/2000/svg">
<path d="M4.5 15C4.91667 15 5.27083 14.8542 5.5625 14.5625C5.85417 14.2708 6 13.9167 6 13.5C6 13.0833 5.85417 12.7292 5.5625 12.4375C5.27083 12.1458 4.91667 12 4.5 12C4.08333 12 3.72917 12.1458 3.4375 12.4375C3.14583 12.7292 3 13.0833 3 13.5C3 13.9167 3.14583 14.2708 3.4375 14.5625C3.72917 14.8542 4.08333 15 4.5 15V15M4.5 6C4.91667 6 5.27083 5.85417 5.5625 5.5625C5.85417 5.27083 6 4.91667 6 4.5C6 4.08333 5.85417 3.72917 5.5625 3.4375C5.27083 3.14583 4.91667 3 4.5 3C4.08333 3 3.72917 3.14583 3.4375 3.4375C3.14583 3.72917 3 4.08333 3 4.5C3 4.91667 3.14583 5.27083 3.4375 5.5625C3.72917 5.85417 4.08333 6 4.5 6V6M9 10.5C9.41667 10.5 9.77083 10.3542 10.0625 10.0625C10.3542 9.77083 10.5 9.41667 10.5 9C10.5 8.58333 10.3542 8.22917 10.0625 7.9375C9.77083 7.64583 9.41667 7.5 9 7.5C8.58333 7.5 8.22917 7.64583 7.9375 7.9375C7.64583 8.22917 7.5 8.58333 7.5 9C7.5 9.41667 7.64583 9.77083 7.9375 10.0625C8.22917 10.3542 8.58333 10.5 9 10.5V10.5M13.5 15C13.9167 15 14.2708 14.8542 14.5625 14.5625C14.8542 14.2708 15 13.9167 15 13.5C15 13.0833 14.8542 12.7292 14.5625 12.4375C14.2708 12.1458 13.9167 12 13.5 12C13.0833 12 12.7292 12.1458 12.4375 12.4375C12.1458 12.7292 12 13.0833 12 13.5C12 13.9167 12.1458 14.2708 12.4375 14.5625C12.7292 14.8542 13.0833 15 13.5 15V15M13.5 6C13.9167 6 14.2708 5.85417 14.5625 5.5625C14.8542 5.27083 15 4.91667 15 4.5C15 4.08333 14.8542 3.72917 14.5625 3.4375C14.2708 3.14583 13.9167 3 13.5 3C13.0833 3 12.7292 3.14583 12.4375 3.4375C12.1458 3.72917 12 4.08333 12 4.5C12 4.91667 12.1458 5.27083 12.4375 5.5625C12.7292 5.85417 13.0833 6 13.5 6V6M2 18C1.45 18 0.979167 17.8042 0.5875 17.4125C0.195833 17.0208 0 16.55 0 16V2C0 1.45 0.195833 0.979167 0.5875 0.5875C0.979167 0.195833 1.45 0 2 0H16C16.55 0 17.0208 0.195833 17.4125 0.5875C17.8042 0.979167 18 1.45 18 2V16C18 16.55 17.8042 17.0208 17.4125 17.4125C17.0208 17.8042 16.55 18 16 18H2V18M2 16H16V16V16V2V2V2H2V2V2V16V16V16V16M2 2V2V2V2V16V16V16V16V16V16V2V2V2V2" fill="#705D00"/>
</svg>
