<svg width="20" height="16" viewBox="0 0 20 16" fill="none" xmlns="http://www.w3.org/2000/svg">
<path d="M9.4 12L12 9.4L14.6 12L16 10.6L13.4 8L16 5.4L14.6 4L12 6.6L9.4 4L8 5.4L10.6 8L8 10.6L9.4 12V12M7 16C6.68333 16 6.38333 15.9292 6.1 15.7875C5.81667 15.6458 5.58333 15.45 5.4 15.2L0 8L5.4 0.8C5.58333 0.55 5.81667 0.354167 6.1 0.2125C6.38333 0.0708333 6.68333 0 7 0H18C18.55 0 19.0208 0.195833 19.4125 0.5875C19.8042 0.979167 20 1.45 20 2V14C20 14.55 19.8042 15.0208 19.4125 15.4125C19.0208 15.8042 18.55 16 18 16H7V16M2.5 8L7 14V14V14H18V14V14V2V2V2H7V2V2L2.5 8V8M12.5 8V8V8V8V8V8V8V8V8V8V8V8V8V8V8" fill="#BA1A1A"/>
</svg>
