<svg width="30" height="22" viewBox="0 0 30 22" fill="none" xmlns="http://www.w3.org/2000/svg">
<path d="M0 21.3333V17.6C0 16.8444 0.194444 16.15 0.583333 15.5167C0.972222 14.8833 1.48889 14.4 2.13333 14.0667C3.51111 13.3778 4.91111 12.8611 6.33333 12.5167C7.75556 12.1722 9.2 12 10.6667 12C12.1333 12 13.5778 12.1722 15 12.5167C16.4222 12.8611 17.8222 13.3778 19.2 14.0667C19.8444 14.4 20.3611 14.8833 20.75 15.5167C21.1389 16.15 21.3333 16.8444 21.3333 17.6V21.3333H0ZM24 21.3333V17.3333C24 16.3556 23.7278 15.4167 23.1833 14.5167C22.6389 13.6167 21.8667 12.8444 20.8667 12.2C22 12.3333 23.0667 12.5611 24.0667 12.8833C25.0667 13.2056 26 13.6 26.8667 14.0667C27.6667 14.5111 28.2778 15.0056 28.7 15.55C29.1222 16.0944 29.3333 16.6889 29.3333 17.3333V21.3333H24ZM10.6667 10.6667C9.2 10.6667 7.94444 10.1444 6.9 9.1C5.85556 8.05556 5.33333 6.8 5.33333 5.33333C5.33333 3.86667 5.85556 2.61111 6.9 1.56667C7.94444 0.522222 9.2 0 10.6667 0C12.1333 0 13.3889 0.522222 14.4333 1.56667C15.4778 2.61111 16 3.86667 16 5.33333C16 6.8 15.4778 8.05556 14.4333 9.1C13.3889 10.1444 12.1333 10.6667 10.6667 10.6667ZM24 5.33333C24 6.8 23.4778 8.05556 22.4333 9.1C21.3889 10.1444 20.1333 10.6667 18.6667 10.6667C18.4222 10.6667 18.1111 10.6389 17.7333 10.5833C17.3556 10.5278 17.0444 10.4667 16.8 10.4C17.4 9.68889 17.8611 8.9 18.1833 8.03333C18.5056 7.16667 18.6667 6.26667 18.6667 5.33333C18.6667 4.4 18.5056 3.5 18.1833 2.63333C17.8611 1.76667 17.4 0.977778 16.8 0.266667C17.1111 0.155556 17.4222 0.0833333 17.7333 0.05C18.0444 0.0166667 18.3556 0 18.6667 0C20.1333 0 21.3889 0.522222 22.4333 1.56667C23.4778 2.61111 24 3.86667 24 5.33333Z" fill="white"/>
</svg>
